# xmcd CD database file
#
# Track frame offsets:
#	150
#	30257
#	49038
#	83465
#	117627
#	150828
#
# Disc length: 2544 seconds
#
# Revision: 0
# Processed by: cddbd v1.4PL0 Copyright (c) Steve Scherf et al.
# Submitted via: CDex 1.51
#
DISCID=3409ee06
DTITLE=Tony O Connor  - Zodiac Collection Libra 
DYEAR=2001
DGENRE=New Age
TTITLE0=Libra 1
TTITLE1=Libra 2
TTITLE2=Libra 3
TTITLE3=Libra 4
TTITLE4=Libra 5
TTITLE5=Libra 6
EXTD=YEAR: 2001
EXTT0=
EXTT1=
EXTT2=
EXTT3=
EXTT4=
EXTT5=
PLAYORDER=
